<svg width="64" height="64" viewBox="0 0 64 64" fill="none" xmlns="http://www.w3.org/2000/svg">
<circle cx="32" cy="32" r="32" fill="#DCFCE7"/>
<rect width="64" height="64" rx="6" fill="#22C55E"/>
<path d="M41.71 27.29C41.617 27.1963 41.5064 27.1219 41.3846 27.0711C41.2627 27.0203 41.132 26.9942 41 26.9942C40.868 26.9942 40.7373 27.0203 40.6154 27.0711C40.4936 27.1219 40.383 27.1963 40.29 27.29L34 33.59L29.71 29.29C29.617 29.1963 29.5064 29.1219 29.3846 29.0711C29.2627 29.0203 29.132 28.9942 29 28.9942C28.868 28.9942 28.7373 29.0203 28.6154 29.0711C28.4936 29.1219 28.383 29.1963 28.29 29.29L22.29 35.29C22.1963 35.383 22.1219 35.4936 22.0711 35.6154C22.0203 35.7373 21.9942 35.868 21.9942 36C21.9942 36.132 22.0203 36.2627 22.0711 36.3846C22.1219 36.5064 22.1963 36.617 22.29 36.71C22.383 36.8037 22.4936 36.8781 22.6154 36.9289C22.7373 36.9797 22.868 37.0058 23 37.0058C23.132 37.0058 23.2627 36.9797 23.3846 36.9289C23.5064 36.8781 23.617 36.8037 23.71 36.71L29 31.41L33.29 35.71C33.383 35.8037 33.4936 35.8781 33.6154 35.9289C33.7373 35.9797 33.868 36.0058 34 36.0058C34.132 36.0058 34.2627 35.9797 34.3846 35.9289C34.5064 35.8781 34.617 35.8037 34.71 35.71L41.71 28.71C41.8037 28.617 41.8781 28.5064 41.9289 28.3846C41.9797 28.2627 42.0058 28.132 42.0058 28C42.0058 27.868 41.9797 27.7373 41.9289 27.6154C41.8781 27.4936 41.8037 27.383 41.71 27.29Z" fill="white"/>
</svg>
